<?xml version="1.0" standalone="no"?>
<!DOCTYPE svg PUBLIC "-//W3C//DTD SVG 20010904//EN"
 "http://www.w3.org/TR/2001/REC-SVG-20010904/DTD/svg10.dtd">
<svg version="1.0" xmlns="http://www.w3.org/2000/svg"
 width="256.000000pt" height="256.000000pt" viewBox="0 0 256.000000 256.000000"
 preserveAspectRatio="xMidYMid meet">
<metadata>
Created by potrace 1.11, written by Peter Selinger 2001-2013
</metadata>
<g transform="translate(0.000000,256.000000) scale(0.100000,-0.100000)"
fill="#000000" stroke="none">
<path d="M710 1680 c-46 -46 -9 -100 69 -100 l49 0 36 -90 c20 -50 36 -94 36
-99 0 -4 -19 -41 -42 -80 -54 -91 -59 -99 -185 -316 -58 -99 -114 -192 -124
-207 -31 -44 -35 -82 -10 -107 20 -20 31 -21 217 -21 l196 0 -7 -37 c-17 -94
-102 -196 -204 -246 -60 -29 -74 -32 -161 -31 -86 0 -101 3 -161 32 -80 38
-150 110 -187 190 -35 78 -37 208 -3 294 53 136 199 235 349 238 28 0 62 33
62 60 0 11 -9 29 -21 41 -18 18 -29 20 -85 15 -127 -12 -236 -67 -324 -162
-283 -310 -74 -811 346 -830 150 -6 270 40 373 143 72 72 111 141 134 233 l14
55 92 5 92 5 37 41 c62 68 193 213 211 232 15 18 110 122 222 245 l45 49 13
-43 c33 -114 144 -458 156 -486 24 -54 97 -54 110 0 4 13 -16 91 -48 192 -30
94 -56 177 -58 185 -3 12 8 15 55 16 105 2 200 -39 273 -119 191 -207 98 -540
-174 -622 -27 -8 -78 -13 -122 -11 -98 3 -187 44 -253 114 -58 62 -83 111 -98
193 -7 35 -14 74 -16 87 -10 54 -96 51 -110 -5 -11 -43 13 -159 48 -232 39
-83 141 -187 218 -224 207 -100 423 -65 581 92 198 199 198 503 0 702 -104
104 -234 155 -379 147 l-66 -3 -52 163 -52 163 101 -3 c82 -3 102 -6 111 -21
16 -25 -3 -50 -44 -58 -61 -13 -81 -75 -35 -105 55 -36 159 8 189 80 15 35 14
113 -3 144 -6 12 -28 34 -48 49 -36 27 -39 28 -191 31 -85 2 -166 1 -179 -3
-47 -12 -50 -68 -7 -180 5 -13 -33 -15 -343 -15 l-349 0 -20 52 c-10 29 -20
56 -22 60 -2 4 17 8 42 8 51 0 86 25 86 60 0 11 -9 29 -20 40 -18 18 -33 20
-180 20 -147 0 -162 -2 -180 -20z m903 -447 c-115 -126 -99 -108 -193 -213
-133 -148 -168 -185 -172 -180 -3 3 -21 48 -40 100 -20 52 -63 164 -96 248
l-60 152 330 0 330 0 -99 -107z m-563 -218 c45 -116 85 -216 87 -222 4 -10
-44 -13 -221 -13 -124 0 -226 2 -226 5 0 3 12 24 27 48 15 23 31 51 37 63 49
92 202 341 208 336 3 -4 43 -101 88 -217z"/>
</g>
</svg>
